<?xml version="1.0" encoding="UTF-8" standalone="no"?>
<svg
   xmlns:dc="http://purl.org/dc/elements/1.1/"
   xmlns:cc="http://creativecommons.org/ns#"
   xmlns:rdf="http://www.w3.org/1999/02/22-rdf-syntax-ns#"
   xmlns:svg="http://www.w3.org/2000/svg"
   xmlns="http://www.w3.org/2000/svg"
   xmlns:sodipodi="http://sodipodi.sourceforge.net/DTD/sodipodi-0.dtd"
   xmlns:inkscape="http://www.inkscape.org/namespaces/inkscape"
   width="40.031982mm"
   height="10.485887mm"
   viewBox="0 0 40.031983 10.485887"
   version="1.1"
   id="svg8"
   inkscape:version="1.0.1 (3bc2e813f5, 2020-09-07)"
   sodipodi:docname="dwarfos.svg">
  <defs
     id="defs2">
    <rect
       x="29.104168"
       y="21.166668"
       width="92.604164"
       height="47.625"
       id="rect14" />
  </defs>
  <sodipodi:namedview
     id="base"
     pagecolor="#ffffff"
     bordercolor="#666666"
     borderopacity="1.0"
     inkscape:pageopacity="0.0"
     inkscape:pageshadow="2"
     inkscape:zoom="1.4"
     inkscape:cx="5.6896787"
     inkscape:cy="124.87682"
     inkscape:document-units="mm"
     inkscape:current-layer="text12"
     inkscape:document-rotation="0"
     showgrid="false"
     inkscape:window-width="1336"
     inkscape:window-height="991"
     inkscape:window-x="26"
     inkscape:window-y="23"
     inkscape:window-maximized="0"
     fit-margin-top="0"
     fit-margin-left="0"
     fit-margin-right="0"
     fit-margin-bottom="0">
    <inkscape:grid
       type="xygrid"
       id="grid10"
       originx="-48.719811"
       originy="-19.892472" />
  </sodipodi:namedview>
  <metadata
     id="metadata5">
    <rdf:RDF>
      <cc:Work
         rdf:about="">
        <dc:format>image/svg+xml</dc:format>
        <dc:type
           rdf:resource="http://purl.org/dc/dcmitype/StillImage" />
        <dc:title />
      </cc:Work>
    </rdf:RDF>
  </metadata>
  <g
     inkscape:groupmode="layer"
     id="layer2"
     inkscape:label="Layer 2"
     transform="translate(-48.719814,-19.892471)">
    <rect
       id="rect50"
       width="9.0965176"
       height="10.485887"
       x="48.719814"
       y="19.892471"
       style="font-style:normal;font-variant:normal;font-weight:600;font-stretch:normal;font-size:9.87778px;line-height:1.25;font-family:'URW Gothic';-inkscape-font-specification:'URW Gothic, Semi-Bold';font-variant-ligatures:normal;font-variant-caps:normal;font-variant-numeric:normal;font-variant-east-asian:normal;white-space:pre;shape-inside:url(#rect14);fill:#ff2a2a;fill-opacity:1;stroke:none;stroke-width:0.195329" />
  </g>
  <g
     inkscape:label="Layer 1"
     inkscape:groupmode="layer"
     id="layer1"
     transform="translate(-48.719814,-19.892471)">
    <g
       aria-label="Dwarfos"
       transform="translate(20.878067,-2.9330489)"
       id="text12"
       style="font-style:normal;font-variant:normal;font-weight:600;font-stretch:normal;font-size:9.87778px;line-height:1.25;font-family:'URW Gothic';-inkscape-font-specification:'URW Gothic, Semi-Bold';font-variant-ligatures:normal;font-variant-caps:normal;font-variant-numeric:normal;font-variant-east-asian:normal;white-space:pre;shape-inside:url(#rect14);fill:#000000;fill-opacity:1;stroke:none">
      <path
         d="m 29.803152,31.496536 h 1.698978 c 1.106311,0 1.768122,-0.108656 2.360789,-0.404989 1.126067,-0.553156 1.787878,-1.758245 1.787878,-3.230035 0,-1.392766 -0.572911,-2.528711 -1.590322,-3.141134 -0.572911,-0.345722 -1.442156,-0.523522 -2.587979,-0.523522 h -1.669344 z m 1.353256,-1.29399 v -4.711701 h 0.2667 c 0.869244,0 1.323622,0.07902 1.748367,0.296334 0.691444,0.3556 1.116189,1.135944 1.116189,2.074333 0,0.879123 -0.404989,1.659468 -1.056923,2.015068 -0.404989,0.217311 -0.968022,0.325966 -1.778,0.325966 z"
         style="font-style:normal;font-variant:normal;font-weight:600;font-stretch:normal;font-size:9.87778px;font-family:'URW Gothic';-inkscape-font-specification:'URW Gothic, Semi-Bold';font-variant-ligatures:normal;font-variant-caps:normal;font-variant-numeric:normal;font-variant-east-asian:normal;fill:#ffffff"
         id="path35" />
      <path
         d="m 39.356642,31.684439 h 0.809978 l 1.056923,-3.546123 1.037167,3.546123 h 0.819855 l 1.975556,-5.472291 h -1.402644 l -0.997656,3.33869 -0.898878,-3.33869 h -1.047045 l -0.918633,3.33869 -0.977901,-3.33869 h -1.412522 z"
         style="font-style:normal;font-variant:normal;font-weight:600;font-stretch:normal;font-size:9.87778px;font-family:'URW Gothic';-inkscape-font-specification:'URW Gothic, Semi-Bold';font-variant-ligatures:normal;font-variant-caps:normal;font-variant-numeric:normal;font-variant-east-asian:normal;fill:#ffffff"
         id="path37" />
      <path
         d="m 51.022283,26.212148 h -1.20509 v 0.730956 c -0.454377,-0.602544 -0.997655,-0.859367 -1.787878,-0.859367 -1.619956,0 -2.785534,1.214967 -2.785534,2.884312 0,1.649589 1.155701,2.844801 2.755901,2.844801 0.770467,0 1.293989,-0.237067 1.817511,-0.839612 v 0.711201 h 1.20509 z m -2.854679,1.076678 c 0.938389,0 1.610078,0.701323 1.610078,1.698979 0,0.395111 -0.158044,0.849489 -0.395111,1.126066 -0.2667,0.325967 -0.691445,0.493889 -1.195211,0.493889 -0.958145,0 -1.619956,-0.651933 -1.619956,-1.610078 0,-0.997655 0.661811,-1.708856 1.6002,-1.708856 z"
         style="font-style:normal;font-variant:normal;font-weight:600;font-stretch:normal;font-size:9.87778px;font-family:'URW Gothic';-inkscape-font-specification:'URW Gothic, Semi-Bold';font-variant-ligatures:normal;font-variant-caps:normal;font-variant-numeric:normal;font-variant-east-asian:normal;fill:#ffffff"
         id="path39" />
      <path
         d="m 52.000181,31.684439 h 1.313745 v -3.042357 c -0.02963,-0.809978 0.385233,-1.264356 1.175455,-1.293989 v -1.264356 h -0.09878 c -0.563034,0 -0.839612,0.158045 -1.185334,0.661812 v -0.533401 h -1.205089 z"
         style="font-style:normal;font-variant:normal;font-weight:600;font-stretch:normal;font-size:9.87778px;font-family:'URW Gothic';-inkscape-font-specification:'URW Gothic, Semi-Bold';font-variant-ligatures:normal;font-variant-caps:normal;font-variant-numeric:normal;font-variant-east-asian:normal;fill:#ffffff"
         id="path41" />
      <path
         d="m 55.319103,31.684439 h 1.313745 V 27.40736 h 0.740834 v -1.096434 h -0.740834 c 0.0099,-0.503767 0.1778,-0.661811 0.701322,-0.661811 h 0.118534 v -1.2446 c -0.158045,-0.01976 -0.227189,-0.01976 -0.325967,-0.01976 -0.572911,0 -1.037167,0.207433 -1.373011,0.612422 -0.2667,0.316089 -0.365478,0.632178 -0.434623,1.313745 H 54.84497 v 1.096434 h 0.474133 z"
         style="font-style:normal;font-variant:normal;font-weight:600;font-stretch:normal;font-size:9.87778px;font-family:'URW Gothic';-inkscape-font-specification:'URW Gothic, Semi-Bold';font-variant-ligatures:normal;font-variant-caps:normal;font-variant-numeric:normal;font-variant-east-asian:normal;fill:#ffffff"
         id="path43" />
      <path
         d="m 60.593812,26.083737 c -1.590323,0 -2.89419,1.293989 -2.89419,2.864556 0,1.580445 1.303867,2.864557 2.904068,2.864557 1.590322,0 2.913945,-1.284112 2.913945,-2.825045 0,-1.629834 -1.274234,-2.904068 -2.923823,-2.904068 z m 0.0099,1.205089 c 0.879122,0 1.590322,0.740834 1.590322,1.659467 0,0.918634 -0.7112,1.659467 -1.580445,1.659467 -0.889,0 -1.590322,-0.740833 -1.590322,-1.679222 0,-0.898878 0.7112,-1.639712 1.580445,-1.639712 z"
         style="font-style:normal;font-variant:normal;font-weight:600;font-stretch:normal;font-size:9.87778px;font-family:'URW Gothic';-inkscape-font-specification:'URW Gothic, Semi-Bold';font-variant-ligatures:normal;font-variant-caps:normal;font-variant-numeric:normal;font-variant-east-asian:normal;fill:#ffffff"
         id="path45" />
      <path
         d="m 63.91274,29.945949 c 0.05927,0.5334 0.148167,0.819856 0.365478,1.106312 0.3556,0.474133 0.9779,0.760589 1.639712,0.760589 1.096433,0 1.9558,-0.819856 1.9558,-1.866901 0,-0.829733 -0.414867,-1.264356 -1.521178,-1.6002 -0.543278,-0.167922 -0.543278,-0.167922 -0.671689,-0.227189 -0.158045,-0.07902 -0.256822,-0.207433 -0.256822,-0.375356 0,-0.256822 0.217311,-0.454378 0.503766,-0.454378 0.276578,0 0.454378,0.148167 0.513645,0.434623 h 1.284111 c -0.01976,-0.464256 -0.128411,-0.740834 -0.395111,-1.037167 -0.345722,-0.385234 -0.859367,-0.602545 -1.402645,-0.602545 -1.027289,0 -1.817511,0.730956 -1.817511,1.669345 0,0.8001 0.424744,1.254478 1.521178,1.619956 0.493889,0.167922 0.543278,0.187678 0.681567,0.276578 0.158044,0.09878 0.246944,0.246944 0.246944,0.424744 0,0.306212 -0.246944,0.5334 -0.592666,0.5334 -0.385234,0 -0.602545,-0.197555 -0.730956,-0.661811 z"
         style="font-style:normal;font-variant:normal;font-weight:600;font-stretch:normal;font-size:9.87778px;font-family:'URW Gothic';-inkscape-font-specification:'URW Gothic, Semi-Bold';font-variant-ligatures:normal;font-variant-caps:normal;font-variant-numeric:normal;font-variant-east-asian:normal;fill:#ffffff"
         id="path47" />
    </g>
  </g>
</svg>